<mxfile host="app.diagrams.net" modified="2020-11-27T12:23:25.046Z" agent="5.0 (Windows NT 10.0; Win64; x64) AppleWebKit/537.36 (KHTML, like Gecko) Chrome/87.0.4280.67 Safari/537.36 Edg/87.0.664.47" etag="4iBsf2laGQHRcX3NIIWm" version="13.10.0" type="github">
  <diagram id="kVUQ6tlqXSVQOvG3zIY0" name="Page-1">
    <mxGraphModel dx="1280" dy="707" grid="1" gridSize="6" guides="1" tooltips="1" connect="1" arrows="1" fold="1" page="1" pageScale="1" pageWidth="850" pageHeight="1100" math="0" shadow="0">
      <root>
        <mxCell id="0" />
        <mxCell id="1" parent="0" />
        <mxCell id="ABb1TR_tbEkya49D76g5-5" value="" style="ellipse;html=1;shape=startState;fillColor=#000000;strokeColor=#ff0000;" vertex="1" parent="1">
          <mxGeometry x="210.5" y="347" width="30" height="30" as="geometry" />
        </mxCell>
        <mxCell id="ABb1TR_tbEkya49D76g5-7" value="&lt;font style=&quot;font-size: 14px&quot;&gt;Hiển thị trang chủ&lt;/font&gt;" style="html=1;align=center;verticalAlign=top;rounded=1;absoluteArcSize=1;arcSize=10;dashed=0;" vertex="1" parent="1">
          <mxGeometry x="421" y="353" width="120" height="48" as="geometry" />
        </mxCell>
        <mxCell id="ABb1TR_tbEkya49D76g5-9" value="&lt;font style=&quot;font-size: 14px&quot;&gt;Hiển thị màn hình &lt;br&gt;quản lý đơn đặt hàng&lt;/font&gt;" style="html=1;align=center;verticalAlign=top;rounded=1;absoluteArcSize=1;arcSize=10;dashed=0;" vertex="1" parent="1">
          <mxGeometry x="619" y="347" width="138" height="66" as="geometry" />
        </mxCell>
        <mxCell id="ABb1TR_tbEkya49D76g5-10" value="" style="html=1;verticalAlign=bottom;endArrow=block;" edge="1" parent="1">
          <mxGeometry x="0.2" y="12" width="80" relative="1" as="geometry">
            <mxPoint x="541" y="371" as="sourcePoint" />
            <mxPoint x="621" y="371" as="targetPoint" />
            <mxPoint as="offset" />
          </mxGeometry>
        </mxCell>
        <mxCell id="ABb1TR_tbEkya49D76g5-12" value="" style="html=1;verticalAlign=bottom;endArrow=block;exitX=0.5;exitY=1;exitDx=0;exitDy=0;entryX=0.5;entryY=0;entryDx=0;entryDy=0;" edge="1" parent="1" source="ABb1TR_tbEkya49D76g5-9" target="ABb1TR_tbEkya49D76g5-13">
          <mxGeometry width="80" relative="1" as="geometry">
            <mxPoint x="535" y="467" as="sourcePoint" />
            <mxPoint x="688" y="473" as="targetPoint" />
          </mxGeometry>
        </mxCell>
        <mxCell id="ABb1TR_tbEkya49D76g5-13" value="&lt;font style=&quot;font-size: 14px&quot;&gt;Danh mục các &lt;br&gt;loại đơn hàng đã đặt&lt;/font&gt;" style="html=1;align=center;verticalAlign=top;rounded=1;absoluteArcSize=1;arcSize=10;dashed=0;" vertex="1" parent="1">
          <mxGeometry x="595" y="497" width="186" height="60" as="geometry" />
        </mxCell>
        <mxCell id="ABb1TR_tbEkya49D76g5-19" value="" style="shape=line;html=1;strokeWidth=6;rotation=90;" vertex="1" parent="1">
          <mxGeometry x="394" y="554" width="222" height="6" as="geometry" />
        </mxCell>
        <mxCell id="ABb1TR_tbEkya49D76g5-26" value="" style="html=1;verticalAlign=bottom;endArrow=block;exitX=0;exitY=0.5;exitDx=0;exitDy=0;exitPerimeter=0;entryX=1;entryY=0.5;entryDx=0;entryDy=0;" edge="1" parent="1" source="ABb1TR_tbEkya49D76g5-19" target="ABb1TR_tbEkya49D76g5-28">
          <mxGeometry x="-1" y="-78" width="80" relative="1" as="geometry">
            <mxPoint x="535" y="629" as="sourcePoint" />
            <mxPoint x="427" y="446" as="targetPoint" />
            <mxPoint x="-66" y="-36" as="offset" />
          </mxGeometry>
        </mxCell>
        <mxCell id="ABb1TR_tbEkya49D76g5-27" value="" style="html=1;verticalAlign=bottom;endArrow=block;entryX=0.368;entryY=0.357;entryDx=0;entryDy=0;entryPerimeter=0;" edge="1" parent="1" source="ABb1TR_tbEkya49D76g5-13" target="ABb1TR_tbEkya49D76g5-19">
          <mxGeometry width="80" relative="1" as="geometry">
            <mxPoint x="539" y="611" as="sourcePoint" />
            <mxPoint x="517" y="466" as="targetPoint" />
            <Array as="points" />
          </mxGeometry>
        </mxCell>
        <mxCell id="ABb1TR_tbEkya49D76g5-28" value="&lt;font style=&quot;font-size: 14px&quot;&gt;&lt;font&gt;Đơn hàng ốp lưng &lt;br&gt;&lt;/font&gt;điện thoại&lt;/font&gt;" style="html=1;align=center;verticalAlign=top;rounded=1;absoluteArcSize=1;arcSize=10;dashed=0;" vertex="1" parent="1">
          <mxGeometry x="281" y="425" width="140" height="40" as="geometry" />
        </mxCell>
        <mxCell id="ABb1TR_tbEkya49D76g5-29" value="" style="html=1;verticalAlign=bottom;endArrow=block;exitX=0;exitY=0.5;exitDx=0;exitDy=0;exitPerimeter=0;" edge="1" parent="1">
          <mxGeometry x="-1" y="-78" width="80" relative="1" as="geometry">
            <mxPoint x="499" y="517.4100000000001" as="sourcePoint" />
            <mxPoint x="421" y="517.4099999999999" as="targetPoint" />
            <mxPoint x="-66" y="-36" as="offset" />
          </mxGeometry>
        </mxCell>
        <mxCell id="ABb1TR_tbEkya49D76g5-30" value="" style="html=1;verticalAlign=bottom;endArrow=block;exitX=0;exitY=0.5;exitDx=0;exitDy=0;exitPerimeter=0;" edge="1" parent="1">
          <mxGeometry x="-1" y="-78" width="80" relative="1" as="geometry">
            <mxPoint x="504" y="587.0000000000001" as="sourcePoint" />
            <mxPoint x="421" y="587" as="targetPoint" />
            <mxPoint x="-66" y="-36" as="offset" />
          </mxGeometry>
        </mxCell>
        <mxCell id="ABb1TR_tbEkya49D76g5-31" value="&lt;font style=&quot;font-size: 14px&quot;&gt;&lt;font&gt;Đơn hàng tai nghe&lt;/font&gt;&lt;br&gt;&lt;/font&gt;" style="html=1;align=center;verticalAlign=top;rounded=1;absoluteArcSize=1;arcSize=10;dashed=0;" vertex="1" parent="1">
          <mxGeometry x="281" y="497" width="140" height="40" as="geometry" />
        </mxCell>
        <mxCell id="ABb1TR_tbEkya49D76g5-32" value="&lt;font style=&quot;font-size: 14px&quot;&gt;&lt;font&gt;Đơn hàng loa&lt;/font&gt;&lt;br&gt;&lt;/font&gt;" style="html=1;align=center;verticalAlign=top;rounded=1;absoluteArcSize=1;arcSize=10;dashed=0;" vertex="1" parent="1">
          <mxGeometry x="280" y="569" width="140" height="40" as="geometry" />
        </mxCell>
        <mxCell id="ABb1TR_tbEkya49D76g5-33" value="&lt;font style=&quot;font-size: 14px&quot;&gt;&lt;font&gt;Đơn hàng ốp lưng &lt;br&gt;&lt;/font&gt;điện thoại&lt;/font&gt;" style="html=1;align=center;verticalAlign=top;rounded=1;absoluteArcSize=1;arcSize=10;dashed=0;" vertex="1" parent="1">
          <mxGeometry x="277" y="647" width="140" height="40" as="geometry" />
        </mxCell>
        <mxCell id="ABb1TR_tbEkya49D76g5-34" value="" style="html=1;verticalAlign=bottom;endArrow=block;" edge="1" parent="1">
          <mxGeometry x="-1" y="-78" width="80" relative="1" as="geometry">
            <mxPoint x="504" y="666" as="sourcePoint" />
            <mxPoint x="415" y="666" as="targetPoint" />
            <mxPoint x="-66" y="-36" as="offset" />
            <Array as="points">
              <mxPoint x="466" y="666.41" />
            </Array>
          </mxGeometry>
        </mxCell>
        <mxCell id="ABb1TR_tbEkya49D76g5-36" value="" style="html=1;points=[];perimeter=orthogonalPerimeter;fillColor=#000000;strokeColor=none;" vertex="1" parent="1">
          <mxGeometry x="223" y="437" width="5" height="240" as="geometry" />
        </mxCell>
        <mxCell id="ABb1TR_tbEkya49D76g5-38" value="" style="html=1;verticalAlign=bottom;endArrow=block;" edge="1" parent="1">
          <mxGeometry x="-1" y="-78" width="80" relative="1" as="geometry">
            <mxPoint x="283" y="444" as="sourcePoint" />
            <mxPoint x="228" y="444.40999999999997" as="targetPoint" />
            <mxPoint x="-66" y="-36" as="offset" />
          </mxGeometry>
        </mxCell>
        <mxCell id="ABb1TR_tbEkya49D76g5-39" value="" style="html=1;verticalAlign=bottom;endArrow=block;exitX=0;exitY=0.5;exitDx=0;exitDy=0;" edge="1" parent="1" target="ABb1TR_tbEkya49D76g5-36">
          <mxGeometry x="-1" y="-78" width="80" relative="1" as="geometry">
            <mxPoint x="281" y="517" as="sourcePoint" />
            <mxPoint x="227.84000000000015" y="521" as="targetPoint" />
            <mxPoint x="-66" y="-36" as="offset" />
          </mxGeometry>
        </mxCell>
        <mxCell id="ABb1TR_tbEkya49D76g5-40" value="" style="html=1;verticalAlign=bottom;endArrow=block;" edge="1" parent="1">
          <mxGeometry x="-1" y="-78" width="80" relative="1" as="geometry">
            <mxPoint x="281" y="593" as="sourcePoint" />
            <mxPoint x="226" y="593.4100000000001" as="targetPoint" />
            <mxPoint x="-66" y="-36" as="offset" />
          </mxGeometry>
        </mxCell>
        <mxCell id="ABb1TR_tbEkya49D76g5-41" value="" style="html=1;verticalAlign=bottom;endArrow=block;" edge="1" parent="1">
          <mxGeometry x="-1" y="-78" width="80" relative="1" as="geometry">
            <mxPoint x="280" y="666.41" as="sourcePoint" />
            <mxPoint x="225" y="666.82" as="targetPoint" />
            <mxPoint x="-66" y="-36" as="offset" />
          </mxGeometry>
        </mxCell>
        <mxCell id="ABb1TR_tbEkya49D76g5-44" value="" style="html=1;verticalAlign=bottom;endArrow=block;strokeColor=#000000;exitX=-0.122;exitY=0.519;exitDx=0;exitDy=0;exitPerimeter=0;" edge="1" parent="1" source="ABb1TR_tbEkya49D76g5-36">
          <mxGeometry width="80" relative="1" as="geometry">
            <mxPoint x="217" y="561" as="sourcePoint" />
            <mxPoint x="277" y="749" as="targetPoint" />
            <Array as="points">
              <mxPoint x="163" y="561" />
              <mxPoint x="163" y="749" />
            </Array>
          </mxGeometry>
        </mxCell>
        <mxCell id="ABb1TR_tbEkya49D76g5-54" value="" style="edgeStyle=orthogonalEdgeStyle;rounded=0;orthogonalLoop=1;jettySize=auto;html=1;strokeColor=#000000;exitX=1;exitY=0.55;exitDx=0;exitDy=0;exitPerimeter=0;" edge="1" parent="1" source="ABb1TR_tbEkya49D76g5-45" target="ABb1TR_tbEkya49D76g5-49">
          <mxGeometry relative="1" as="geometry">
            <mxPoint x="439" y="758" as="sourcePoint" />
          </mxGeometry>
        </mxCell>
        <mxCell id="ABb1TR_tbEkya49D76g5-45" value="&lt;font style=&quot;font-size: 14px&quot;&gt;Hiển thị thông tin&lt;br&gt;&amp;nbsp;các đơn hàng theo từng &lt;br&gt;danh mục sản phẩm&lt;/font&gt;" style="html=1;align=center;verticalAlign=top;rounded=1;absoluteArcSize=1;arcSize=10;dashed=0;strokeColor=#000000;" vertex="1" parent="1">
          <mxGeometry x="277" y="725" width="156" height="60" as="geometry" />
        </mxCell>
        <mxCell id="ABb1TR_tbEkya49D76g5-49" value="&lt;font style=&quot;font-size: 14px&quot;&gt;Chuyển giao cho bộ&amp;nbsp;&lt;br&gt;phận giao hàng&lt;/font&gt;" style="html=1;align=center;verticalAlign=top;rounded=1;absoluteArcSize=1;arcSize=10;dashed=0;" vertex="1" parent="1">
          <mxGeometry x="493" y="737" width="132" height="42" as="geometry" />
        </mxCell>
        <mxCell id="ABb1TR_tbEkya49D76g5-51" value="" style="ellipse;html=1;shape=endState;fillColor=#000000;strokeColor=#ff0000;" vertex="1" parent="1">
          <mxGeometry x="685" y="747" width="30" height="30" as="geometry" />
        </mxCell>
        <mxCell id="ABb1TR_tbEkya49D76g5-52" value="" style="html=1;verticalAlign=bottom;endArrow=block;strokeColor=#000000;" edge="1" parent="1">
          <mxGeometry width="80" relative="1" as="geometry">
            <mxPoint x="625" y="761" as="sourcePoint" />
            <mxPoint x="687" y="761" as="targetPoint" />
          </mxGeometry>
        </mxCell>
        <mxCell id="ABb1TR_tbEkya49D76g5-53" value="&lt;font style=&quot;font-size: 14px&quot;&gt;Kết thúc use case &lt;br&gt;quản lý đơn hàng&lt;/font&gt;" style="text;html=1;align=center;verticalAlign=middle;resizable=0;points=[];autosize=1;" vertex="1" parent="1">
          <mxGeometry x="708" y="520" width="126" height="42" as="geometry" />
        </mxCell>
        <mxCell id="ABb1TR_tbEkya49D76g5-57" value="" style="html=1;verticalAlign=bottom;endArrow=block;strokeColor=#000000;entryX=0;entryY=0.25;entryDx=0;entryDy=0;" edge="1" parent="1" target="ABb1TR_tbEkya49D76g5-7">
          <mxGeometry width="80" relative="1" as="geometry">
            <mxPoint x="235" y="365" as="sourcePoint" />
            <mxPoint x="267" y="367.41" as="targetPoint" />
          </mxGeometry>
        </mxCell>
        <mxCell id="ABb1TR_tbEkya49D76g5-58" value="&lt;font style=&quot;font-size: 14px&quot;&gt;Bắt đàu&amp;nbsp;use case&amp;nbsp;&lt;br&gt;quản lý đơn hàng&lt;/font&gt;" style="text;html=1;align=center;verticalAlign=middle;resizable=0;points=[];autosize=1;" vertex="1" parent="1">
          <mxGeometry x="90" y="342" width="126" height="42" as="geometry" />
        </mxCell>
      </root>
    </mxGraphModel>
  </diagram>
</mxfile>
